<mxfile host="app.diagrams.net" modified="2023-08-31T11:30:31.738Z" agent="Mozilla/5.0 (Windows NT 10.0; Win64; x64) AppleWebKit/537.36 (KHTML, like Gecko) Chrome/116.0.0.0 Safari/537.36" etag="qe9F9sJgz94KmYcMAcF0" version="21.7.1" type="github">
  <diagram id="C5RBs43oDa-KdzZeNtuy" name="Page-1">
    <mxGraphModel dx="1354" dy="791" grid="1" gridSize="10" guides="1" tooltips="1" connect="1" arrows="1" fold="1" page="1" pageScale="1" pageWidth="827" pageHeight="1169" math="0" shadow="0">
      <root>
        <mxCell id="WIyWlLk6GJQsqaUBKTNV-0" />
        <mxCell id="WIyWlLk6GJQsqaUBKTNV-1" parent="WIyWlLk6GJQsqaUBKTNV-0" />
        <mxCell id="GbeJszpM7xZyYqwyyopm-0" value="" style="shape=table;startSize=0;container=1;collapsible=0;childLayout=tableLayout;" vertex="1" parent="WIyWlLk6GJQsqaUBKTNV-1">
          <mxGeometry x="30" y="70" width="240" height="476" as="geometry" />
        </mxCell>
        <mxCell id="GbeJszpM7xZyYqwyyopm-58" style="shape=tableRow;horizontal=0;startSize=0;swimlaneHead=0;swimlaneBody=0;strokeColor=inherit;top=0;left=0;bottom=0;right=0;collapsible=0;dropTarget=0;fillColor=none;points=[[0,0.5],[1,0.5]];portConstraint=eastwest;" vertex="1" parent="GbeJszpM7xZyYqwyyopm-0">
          <mxGeometry width="240" height="39" as="geometry" />
        </mxCell>
        <mxCell id="GbeJszpM7xZyYqwyyopm-59" value="Field" style="shape=partialRectangle;html=1;whiteSpace=wrap;connectable=0;strokeColor=#82b366;overflow=hidden;fillColor=#d5e8d4;top=0;left=0;bottom=0;right=0;pointerEvents=1;" vertex="1" parent="GbeJszpM7xZyYqwyyopm-58">
          <mxGeometry width="120" height="39" as="geometry">
            <mxRectangle width="120" height="39" as="alternateBounds" />
          </mxGeometry>
        </mxCell>
        <mxCell id="GbeJszpM7xZyYqwyyopm-60" value="Type" style="shape=partialRectangle;html=1;whiteSpace=wrap;connectable=0;strokeColor=#82b366;overflow=hidden;fillColor=#d5e8d4;top=0;left=0;bottom=0;right=0;pointerEvents=1;dashed=1;" vertex="1" parent="GbeJszpM7xZyYqwyyopm-58">
          <mxGeometry x="120" width="120" height="39" as="geometry">
            <mxRectangle width="120" height="39" as="alternateBounds" />
          </mxGeometry>
        </mxCell>
        <mxCell id="GbeJszpM7xZyYqwyyopm-1" value="" style="shape=tableRow;horizontal=0;startSize=0;swimlaneHead=0;swimlaneBody=0;strokeColor=inherit;top=0;left=0;bottom=0;right=0;collapsible=0;dropTarget=0;fillColor=none;points=[[0,0.5],[1,0.5]];portConstraint=eastwest;" vertex="1" parent="GbeJszpM7xZyYqwyyopm-0">
          <mxGeometry y="39" width="240" height="39" as="geometry" />
        </mxCell>
        <mxCell id="GbeJszpM7xZyYqwyyopm-2" value="_id" style="shape=partialRectangle;html=1;whiteSpace=wrap;connectable=0;strokeColor=inherit;overflow=hidden;fillColor=none;top=0;left=0;bottom=0;right=0;pointerEvents=1;" vertex="1" parent="GbeJszpM7xZyYqwyyopm-1">
          <mxGeometry width="120" height="39" as="geometry">
            <mxRectangle width="120" height="39" as="alternateBounds" />
          </mxGeometry>
        </mxCell>
        <mxCell id="GbeJszpM7xZyYqwyyopm-3" value="String" style="shape=partialRectangle;html=1;whiteSpace=wrap;connectable=0;strokeColor=inherit;overflow=hidden;fillColor=none;top=0;left=0;bottom=0;right=0;pointerEvents=1;dashed=1;" vertex="1" parent="GbeJszpM7xZyYqwyyopm-1">
          <mxGeometry x="120" width="120" height="39" as="geometry">
            <mxRectangle width="120" height="39" as="alternateBounds" />
          </mxGeometry>
        </mxCell>
        <mxCell id="GbeJszpM7xZyYqwyyopm-4" value="" style="shape=tableRow;horizontal=0;startSize=0;swimlaneHead=0;swimlaneBody=0;strokeColor=inherit;top=0;left=0;bottom=0;right=0;collapsible=0;dropTarget=0;fillColor=none;points=[[0,0.5],[1,0.5]];portConstraint=eastwest;" vertex="1" parent="GbeJszpM7xZyYqwyyopm-0">
          <mxGeometry y="78" width="240" height="39" as="geometry" />
        </mxCell>
        <mxCell id="GbeJszpM7xZyYqwyyopm-5" value="firstName" style="shape=partialRectangle;html=1;whiteSpace=wrap;connectable=0;strokeColor=inherit;overflow=hidden;fillColor=none;top=0;left=0;bottom=0;right=0;pointerEvents=1;" vertex="1" parent="GbeJszpM7xZyYqwyyopm-4">
          <mxGeometry width="120" height="39" as="geometry">
            <mxRectangle width="120" height="39" as="alternateBounds" />
          </mxGeometry>
        </mxCell>
        <mxCell id="GbeJszpM7xZyYqwyyopm-6" value="String" style="shape=partialRectangle;html=1;whiteSpace=wrap;connectable=0;strokeColor=inherit;overflow=hidden;fillColor=none;top=0;left=0;bottom=0;right=0;pointerEvents=1;" vertex="1" parent="GbeJszpM7xZyYqwyyopm-4">
          <mxGeometry x="120" width="120" height="39" as="geometry">
            <mxRectangle width="120" height="39" as="alternateBounds" />
          </mxGeometry>
        </mxCell>
        <mxCell id="GbeJszpM7xZyYqwyyopm-7" value="" style="shape=tableRow;horizontal=0;startSize=0;swimlaneHead=0;swimlaneBody=0;strokeColor=inherit;top=0;left=0;bottom=0;right=0;collapsible=0;dropTarget=0;fillColor=none;points=[[0,0.5],[1,0.5]];portConstraint=eastwest;" vertex="1" parent="GbeJszpM7xZyYqwyyopm-0">
          <mxGeometry y="117" width="240" height="39" as="geometry" />
        </mxCell>
        <mxCell id="GbeJszpM7xZyYqwyyopm-8" value="lastName" style="shape=partialRectangle;html=1;whiteSpace=wrap;connectable=0;strokeColor=inherit;overflow=hidden;fillColor=none;top=0;left=0;bottom=0;right=0;pointerEvents=1;" vertex="1" parent="GbeJszpM7xZyYqwyyopm-7">
          <mxGeometry width="120" height="39" as="geometry">
            <mxRectangle width="120" height="39" as="alternateBounds" />
          </mxGeometry>
        </mxCell>
        <mxCell id="GbeJszpM7xZyYqwyyopm-9" value="String" style="shape=partialRectangle;html=1;whiteSpace=wrap;connectable=0;strokeColor=inherit;overflow=hidden;fillColor=none;top=0;left=0;bottom=0;right=0;pointerEvents=1;" vertex="1" parent="GbeJszpM7xZyYqwyyopm-7">
          <mxGeometry x="120" width="120" height="39" as="geometry">
            <mxRectangle width="120" height="39" as="alternateBounds" />
          </mxGeometry>
        </mxCell>
        <mxCell id="GbeJszpM7xZyYqwyyopm-10" value="" style="shape=tableRow;horizontal=0;startSize=0;swimlaneHead=0;swimlaneBody=0;strokeColor=inherit;top=0;left=0;bottom=0;right=0;collapsible=0;dropTarget=0;fillColor=none;points=[[0,0.5],[1,0.5]];portConstraint=eastwest;" vertex="1" parent="GbeJszpM7xZyYqwyyopm-0">
          <mxGeometry y="156" width="240" height="39" as="geometry" />
        </mxCell>
        <mxCell id="GbeJszpM7xZyYqwyyopm-11" value="friends" style="shape=partialRectangle;html=1;whiteSpace=wrap;connectable=0;strokeColor=inherit;overflow=hidden;fillColor=none;top=0;left=0;bottom=0;right=0;pointerEvents=1;" vertex="1" parent="GbeJszpM7xZyYqwyyopm-10">
          <mxGeometry width="120" height="39" as="geometry">
            <mxRectangle width="120" height="39" as="alternateBounds" />
          </mxGeometry>
        </mxCell>
        <mxCell id="GbeJszpM7xZyYqwyyopm-12" value="Array&amp;lt;Object&amp;gt;" style="shape=partialRectangle;html=1;whiteSpace=wrap;connectable=0;strokeColor=inherit;overflow=hidden;fillColor=none;top=0;left=0;bottom=0;right=0;pointerEvents=1;" vertex="1" parent="GbeJszpM7xZyYqwyyopm-10">
          <mxGeometry x="120" width="120" height="39" as="geometry">
            <mxRectangle width="120" height="39" as="alternateBounds" />
          </mxGeometry>
        </mxCell>
        <mxCell id="GbeJszpM7xZyYqwyyopm-13" value="" style="shape=tableRow;horizontal=0;startSize=0;swimlaneHead=0;swimlaneBody=0;strokeColor=inherit;top=0;left=0;bottom=0;right=0;collapsible=0;dropTarget=0;fillColor=none;points=[[0,0.5],[1,0.5]];portConstraint=eastwest;" vertex="1" parent="GbeJszpM7xZyYqwyyopm-0">
          <mxGeometry y="195" width="240" height="40" as="geometry" />
        </mxCell>
        <mxCell id="GbeJszpM7xZyYqwyyopm-14" value="email" style="shape=partialRectangle;html=1;whiteSpace=wrap;connectable=0;strokeColor=inherit;overflow=hidden;fillColor=none;top=0;left=0;bottom=0;right=0;pointerEvents=1;" vertex="1" parent="GbeJszpM7xZyYqwyyopm-13">
          <mxGeometry width="120" height="40" as="geometry">
            <mxRectangle width="120" height="40" as="alternateBounds" />
          </mxGeometry>
        </mxCell>
        <mxCell id="GbeJszpM7xZyYqwyyopm-15" value="String" style="shape=partialRectangle;html=1;whiteSpace=wrap;connectable=0;strokeColor=inherit;overflow=hidden;fillColor=none;top=0;left=0;bottom=0;right=0;pointerEvents=1;" vertex="1" parent="GbeJszpM7xZyYqwyyopm-13">
          <mxGeometry x="120" width="120" height="40" as="geometry">
            <mxRectangle width="120" height="40" as="alternateBounds" />
          </mxGeometry>
        </mxCell>
        <mxCell id="GbeJszpM7xZyYqwyyopm-16" value="" style="shape=tableRow;horizontal=0;startSize=0;swimlaneHead=0;swimlaneBody=0;strokeColor=inherit;top=0;left=0;bottom=0;right=0;collapsible=0;dropTarget=0;fillColor=none;points=[[0,0.5],[1,0.5]];portConstraint=eastwest;" vertex="1" parent="GbeJszpM7xZyYqwyyopm-0">
          <mxGeometry y="235" width="240" height="38" as="geometry" />
        </mxCell>
        <mxCell id="GbeJszpM7xZyYqwyyopm-17" value="password" style="shape=partialRectangle;html=1;whiteSpace=wrap;connectable=0;strokeColor=inherit;overflow=hidden;fillColor=none;top=0;left=0;bottom=0;right=0;pointerEvents=1;" vertex="1" parent="GbeJszpM7xZyYqwyyopm-16">
          <mxGeometry width="120" height="38" as="geometry">
            <mxRectangle width="120" height="38" as="alternateBounds" />
          </mxGeometry>
        </mxCell>
        <mxCell id="GbeJszpM7xZyYqwyyopm-18" value="String" style="shape=partialRectangle;html=1;whiteSpace=wrap;connectable=0;strokeColor=inherit;overflow=hidden;fillColor=none;top=0;left=0;bottom=0;right=0;pointerEvents=1;" vertex="1" parent="GbeJszpM7xZyYqwyyopm-16">
          <mxGeometry x="120" width="120" height="38" as="geometry">
            <mxRectangle width="120" height="38" as="alternateBounds" />
          </mxGeometry>
        </mxCell>
        <mxCell id="GbeJszpM7xZyYqwyyopm-19" value="" style="shape=tableRow;horizontal=0;startSize=0;swimlaneHead=0;swimlaneBody=0;strokeColor=inherit;top=0;left=0;bottom=0;right=0;collapsible=0;dropTarget=0;fillColor=none;points=[[0,0.5],[1,0.5]];portConstraint=eastwest;" vertex="1" parent="GbeJszpM7xZyYqwyyopm-0">
          <mxGeometry y="273" width="240" height="47" as="geometry" />
        </mxCell>
        <mxCell id="GbeJszpM7xZyYqwyyopm-20" value="picturePath" style="shape=partialRectangle;html=1;whiteSpace=wrap;connectable=0;strokeColor=inherit;overflow=hidden;fillColor=none;top=0;left=0;bottom=0;right=0;pointerEvents=1;" vertex="1" parent="GbeJszpM7xZyYqwyyopm-19">
          <mxGeometry width="120" height="47" as="geometry">
            <mxRectangle width="120" height="47" as="alternateBounds" />
          </mxGeometry>
        </mxCell>
        <mxCell id="GbeJszpM7xZyYqwyyopm-21" value="String Ref" style="shape=partialRectangle;html=1;whiteSpace=wrap;connectable=0;strokeColor=inherit;overflow=hidden;fillColor=none;top=0;left=0;bottom=0;right=0;pointerEvents=1;" vertex="1" parent="GbeJszpM7xZyYqwyyopm-19">
          <mxGeometry x="120" width="120" height="47" as="geometry">
            <mxRectangle width="120" height="47" as="alternateBounds" />
          </mxGeometry>
        </mxCell>
        <mxCell id="GbeJszpM7xZyYqwyyopm-22" value="" style="shape=tableRow;horizontal=0;startSize=0;swimlaneHead=0;swimlaneBody=0;strokeColor=inherit;top=0;left=0;bottom=0;right=0;collapsible=0;dropTarget=0;fillColor=none;points=[[0,0.5],[1,0.5]];portConstraint=eastwest;" vertex="1" parent="GbeJszpM7xZyYqwyyopm-0">
          <mxGeometry y="320" width="240" height="39" as="geometry" />
        </mxCell>
        <mxCell id="GbeJszpM7xZyYqwyyopm-23" value="location" style="shape=partialRectangle;html=1;whiteSpace=wrap;connectable=0;strokeColor=inherit;overflow=hidden;fillColor=none;top=0;left=0;bottom=0;right=0;pointerEvents=1;" vertex="1" parent="GbeJszpM7xZyYqwyyopm-22">
          <mxGeometry width="120" height="39" as="geometry">
            <mxRectangle width="120" height="39" as="alternateBounds" />
          </mxGeometry>
        </mxCell>
        <mxCell id="GbeJszpM7xZyYqwyyopm-24" value="String" style="shape=partialRectangle;html=1;whiteSpace=wrap;connectable=0;strokeColor=inherit;overflow=hidden;fillColor=none;top=0;left=0;bottom=0;right=0;pointerEvents=1;" vertex="1" parent="GbeJszpM7xZyYqwyyopm-22">
          <mxGeometry x="120" width="120" height="39" as="geometry">
            <mxRectangle width="120" height="39" as="alternateBounds" />
          </mxGeometry>
        </mxCell>
        <mxCell id="GbeJszpM7xZyYqwyyopm-25" value="" style="shape=tableRow;horizontal=0;startSize=0;swimlaneHead=0;swimlaneBody=0;strokeColor=inherit;top=0;left=0;bottom=0;right=0;collapsible=0;dropTarget=0;fillColor=none;points=[[0,0.5],[1,0.5]];portConstraint=eastwest;" vertex="1" parent="GbeJszpM7xZyYqwyyopm-0">
          <mxGeometry y="359" width="240" height="39" as="geometry" />
        </mxCell>
        <mxCell id="GbeJszpM7xZyYqwyyopm-26" value="occupation" style="shape=partialRectangle;html=1;whiteSpace=wrap;connectable=0;strokeColor=inherit;overflow=hidden;fillColor=none;top=0;left=0;bottom=0;right=0;pointerEvents=1;" vertex="1" parent="GbeJszpM7xZyYqwyyopm-25">
          <mxGeometry width="120" height="39" as="geometry">
            <mxRectangle width="120" height="39" as="alternateBounds" />
          </mxGeometry>
        </mxCell>
        <mxCell id="GbeJszpM7xZyYqwyyopm-27" value="String" style="shape=partialRectangle;html=1;whiteSpace=wrap;connectable=0;strokeColor=inherit;overflow=hidden;fillColor=none;top=0;left=0;bottom=0;right=0;pointerEvents=1;" vertex="1" parent="GbeJszpM7xZyYqwyyopm-25">
          <mxGeometry x="120" width="120" height="39" as="geometry">
            <mxRectangle width="120" height="39" as="alternateBounds" />
          </mxGeometry>
        </mxCell>
        <mxCell id="GbeJszpM7xZyYqwyyopm-28" value="" style="shape=tableRow;horizontal=0;startSize=0;swimlaneHead=0;swimlaneBody=0;strokeColor=inherit;top=0;left=0;bottom=0;right=0;collapsible=0;dropTarget=0;fillColor=none;points=[[0,0.5],[1,0.5]];portConstraint=eastwest;" vertex="1" parent="GbeJszpM7xZyYqwyyopm-0">
          <mxGeometry y="398" width="240" height="39" as="geometry" />
        </mxCell>
        <mxCell id="GbeJszpM7xZyYqwyyopm-29" value="verifiedProfile" style="shape=partialRectangle;html=1;whiteSpace=wrap;connectable=0;strokeColor=inherit;overflow=hidden;fillColor=none;top=0;left=0;bottom=0;right=0;pointerEvents=1;" vertex="1" parent="GbeJszpM7xZyYqwyyopm-28">
          <mxGeometry width="120" height="39" as="geometry">
            <mxRectangle width="120" height="39" as="alternateBounds" />
          </mxGeometry>
        </mxCell>
        <mxCell id="GbeJszpM7xZyYqwyyopm-30" value="Number" style="shape=partialRectangle;html=1;whiteSpace=wrap;connectable=0;strokeColor=inherit;overflow=hidden;fillColor=none;top=0;left=0;bottom=0;right=0;pointerEvents=1;" vertex="1" parent="GbeJszpM7xZyYqwyyopm-28">
          <mxGeometry x="120" width="120" height="39" as="geometry">
            <mxRectangle width="120" height="39" as="alternateBounds" />
          </mxGeometry>
        </mxCell>
        <mxCell id="GbeJszpM7xZyYqwyyopm-31" value="" style="shape=tableRow;horizontal=0;startSize=0;swimlaneHead=0;swimlaneBody=0;strokeColor=inherit;top=0;left=0;bottom=0;right=0;collapsible=0;dropTarget=0;fillColor=none;points=[[0,0.5],[1,0.5]];portConstraint=eastwest;" vertex="1" parent="GbeJszpM7xZyYqwyyopm-0">
          <mxGeometry y="437" width="240" height="39" as="geometry" />
        </mxCell>
        <mxCell id="GbeJszpM7xZyYqwyyopm-32" value="impressions" style="shape=partialRectangle;html=1;whiteSpace=wrap;connectable=0;strokeColor=inherit;overflow=hidden;fillColor=none;top=0;left=0;bottom=0;right=0;pointerEvents=1;" vertex="1" parent="GbeJszpM7xZyYqwyyopm-31">
          <mxGeometry width="120" height="39" as="geometry">
            <mxRectangle width="120" height="39" as="alternateBounds" />
          </mxGeometry>
        </mxCell>
        <mxCell id="GbeJszpM7xZyYqwyyopm-33" value="Number" style="shape=partialRectangle;html=1;whiteSpace=wrap;connectable=0;strokeColor=inherit;overflow=hidden;fillColor=none;top=0;left=0;bottom=0;right=0;pointerEvents=1;" vertex="1" parent="GbeJszpM7xZyYqwyyopm-31">
          <mxGeometry x="120" width="120" height="39" as="geometry">
            <mxRectangle width="120" height="39" as="alternateBounds" />
          </mxGeometry>
        </mxCell>
        <mxCell id="GbeJszpM7xZyYqwyyopm-61" value="User" style="whiteSpace=wrap;html=1;startSize=0;fillColor=#e1d5e7;strokeColor=#9673a6;" vertex="1" parent="WIyWlLk6GJQsqaUBKTNV-1">
          <mxGeometry x="30" y="30" width="240" height="40" as="geometry" />
        </mxCell>
        <mxCell id="GbeJszpM7xZyYqwyyopm-64" value="" style="shape=table;startSize=0;container=1;collapsible=0;childLayout=tableLayout;" vertex="1" parent="WIyWlLk6GJQsqaUBKTNV-1">
          <mxGeometry x="390" y="70" width="240" height="430" as="geometry" />
        </mxCell>
        <mxCell id="GbeJszpM7xZyYqwyyopm-65" style="shape=tableRow;horizontal=0;startSize=0;swimlaneHead=0;swimlaneBody=0;strokeColor=inherit;top=0;left=0;bottom=0;right=0;collapsible=0;dropTarget=0;fillColor=none;points=[[0,0.5],[1,0.5]];portConstraint=eastwest;" vertex="1" parent="GbeJszpM7xZyYqwyyopm-64">
          <mxGeometry width="240" height="39" as="geometry" />
        </mxCell>
        <mxCell id="GbeJszpM7xZyYqwyyopm-66" value="Field" style="shape=partialRectangle;html=1;whiteSpace=wrap;connectable=0;strokeColor=#82b366;overflow=hidden;fillColor=#d5e8d4;top=0;left=0;bottom=0;right=0;pointerEvents=1;" vertex="1" parent="GbeJszpM7xZyYqwyyopm-65">
          <mxGeometry width="120" height="39" as="geometry">
            <mxRectangle width="120" height="39" as="alternateBounds" />
          </mxGeometry>
        </mxCell>
        <mxCell id="GbeJszpM7xZyYqwyyopm-67" value="Type" style="shape=partialRectangle;html=1;whiteSpace=wrap;connectable=0;strokeColor=#82b366;overflow=hidden;fillColor=#d5e8d4;top=0;left=0;bottom=0;right=0;pointerEvents=1;dashed=1;" vertex="1" parent="GbeJszpM7xZyYqwyyopm-65">
          <mxGeometry x="120" width="120" height="39" as="geometry">
            <mxRectangle width="120" height="39" as="alternateBounds" />
          </mxGeometry>
        </mxCell>
        <mxCell id="GbeJszpM7xZyYqwyyopm-68" value="" style="shape=tableRow;horizontal=0;startSize=0;swimlaneHead=0;swimlaneBody=0;strokeColor=inherit;top=0;left=0;bottom=0;right=0;collapsible=0;dropTarget=0;fillColor=none;points=[[0,0.5],[1,0.5]];portConstraint=eastwest;" vertex="1" parent="GbeJszpM7xZyYqwyyopm-64">
          <mxGeometry y="39" width="240" height="39" as="geometry" />
        </mxCell>
        <mxCell id="GbeJszpM7xZyYqwyyopm-69" value="_id" style="shape=partialRectangle;html=1;whiteSpace=wrap;connectable=0;strokeColor=inherit;overflow=hidden;fillColor=none;top=0;left=0;bottom=0;right=0;pointerEvents=1;" vertex="1" parent="GbeJszpM7xZyYqwyyopm-68">
          <mxGeometry width="120" height="39" as="geometry">
            <mxRectangle width="120" height="39" as="alternateBounds" />
          </mxGeometry>
        </mxCell>
        <mxCell id="GbeJszpM7xZyYqwyyopm-70" value="String" style="shape=partialRectangle;html=1;whiteSpace=wrap;connectable=0;strokeColor=inherit;overflow=hidden;fillColor=none;top=0;left=0;bottom=0;right=0;pointerEvents=1;dashed=1;" vertex="1" parent="GbeJszpM7xZyYqwyyopm-68">
          <mxGeometry x="120" width="120" height="39" as="geometry">
            <mxRectangle width="120" height="39" as="alternateBounds" />
          </mxGeometry>
        </mxCell>
        <mxCell id="GbeJszpM7xZyYqwyyopm-71" value="" style="shape=tableRow;horizontal=0;startSize=0;swimlaneHead=0;swimlaneBody=0;strokeColor=inherit;top=0;left=0;bottom=0;right=0;collapsible=0;dropTarget=0;fillColor=none;points=[[0,0.5],[1,0.5]];portConstraint=eastwest;" vertex="1" parent="GbeJszpM7xZyYqwyyopm-64">
          <mxGeometry y="78" width="240" height="39" as="geometry" />
        </mxCell>
        <mxCell id="GbeJszpM7xZyYqwyyopm-72" value="userId" style="shape=partialRectangle;html=1;whiteSpace=wrap;connectable=0;strokeColor=inherit;overflow=hidden;fillColor=none;top=0;left=0;bottom=0;right=0;pointerEvents=1;" vertex="1" parent="GbeJszpM7xZyYqwyyopm-71">
          <mxGeometry width="120" height="39" as="geometry">
            <mxRectangle width="120" height="39" as="alternateBounds" />
          </mxGeometry>
        </mxCell>
        <mxCell id="GbeJszpM7xZyYqwyyopm-73" value="String Ref" style="shape=partialRectangle;html=1;whiteSpace=wrap;connectable=0;strokeColor=inherit;overflow=hidden;fillColor=none;top=0;left=0;bottom=0;right=0;pointerEvents=1;" vertex="1" parent="GbeJszpM7xZyYqwyyopm-71">
          <mxGeometry x="120" width="120" height="39" as="geometry">
            <mxRectangle width="120" height="39" as="alternateBounds" />
          </mxGeometry>
        </mxCell>
        <mxCell id="GbeJszpM7xZyYqwyyopm-74" value="" style="shape=tableRow;horizontal=0;startSize=0;swimlaneHead=0;swimlaneBody=0;strokeColor=inherit;top=0;left=0;bottom=0;right=0;collapsible=0;dropTarget=0;fillColor=none;points=[[0,0.5],[1,0.5]];portConstraint=eastwest;" vertex="1" parent="GbeJszpM7xZyYqwyyopm-64">
          <mxGeometry y="117" width="240" height="39" as="geometry" />
        </mxCell>
        <mxCell id="GbeJszpM7xZyYqwyyopm-75" value="firstName" style="shape=partialRectangle;html=1;whiteSpace=wrap;connectable=0;strokeColor=inherit;overflow=hidden;fillColor=none;top=0;left=0;bottom=0;right=0;pointerEvents=1;" vertex="1" parent="GbeJszpM7xZyYqwyyopm-74">
          <mxGeometry width="120" height="39" as="geometry">
            <mxRectangle width="120" height="39" as="alternateBounds" />
          </mxGeometry>
        </mxCell>
        <mxCell id="GbeJszpM7xZyYqwyyopm-76" value="String" style="shape=partialRectangle;html=1;whiteSpace=wrap;connectable=0;strokeColor=inherit;overflow=hidden;fillColor=none;top=0;left=0;bottom=0;right=0;pointerEvents=1;" vertex="1" parent="GbeJszpM7xZyYqwyyopm-74">
          <mxGeometry x="120" width="120" height="39" as="geometry">
            <mxRectangle width="120" height="39" as="alternateBounds" />
          </mxGeometry>
        </mxCell>
        <mxCell id="GbeJszpM7xZyYqwyyopm-77" value="" style="shape=tableRow;horizontal=0;startSize=0;swimlaneHead=0;swimlaneBody=0;strokeColor=inherit;top=0;left=0;bottom=0;right=0;collapsible=0;dropTarget=0;fillColor=none;points=[[0,0.5],[1,0.5]];portConstraint=eastwest;" vertex="1" parent="GbeJszpM7xZyYqwyyopm-64">
          <mxGeometry y="156" width="240" height="39" as="geometry" />
        </mxCell>
        <mxCell id="GbeJszpM7xZyYqwyyopm-78" value="lastName" style="shape=partialRectangle;html=1;whiteSpace=wrap;connectable=0;strokeColor=inherit;overflow=hidden;fillColor=none;top=0;left=0;bottom=0;right=0;pointerEvents=1;" vertex="1" parent="GbeJszpM7xZyYqwyyopm-77">
          <mxGeometry width="120" height="39" as="geometry">
            <mxRectangle width="120" height="39" as="alternateBounds" />
          </mxGeometry>
        </mxCell>
        <mxCell id="GbeJszpM7xZyYqwyyopm-79" value="String" style="shape=partialRectangle;html=1;whiteSpace=wrap;connectable=0;strokeColor=inherit;overflow=hidden;fillColor=none;top=0;left=0;bottom=0;right=0;pointerEvents=1;" vertex="1" parent="GbeJszpM7xZyYqwyyopm-77">
          <mxGeometry x="120" width="120" height="39" as="geometry">
            <mxRectangle width="120" height="39" as="alternateBounds" />
          </mxGeometry>
        </mxCell>
        <mxCell id="GbeJszpM7xZyYqwyyopm-80" value="" style="shape=tableRow;horizontal=0;startSize=0;swimlaneHead=0;swimlaneBody=0;strokeColor=inherit;top=0;left=0;bottom=0;right=0;collapsible=0;dropTarget=0;fillColor=none;points=[[0,0.5],[1,0.5]];portConstraint=eastwest;" vertex="1" parent="GbeJszpM7xZyYqwyyopm-64">
          <mxGeometry y="195" width="240" height="40" as="geometry" />
        </mxCell>
        <mxCell id="GbeJszpM7xZyYqwyyopm-81" value="location" style="shape=partialRectangle;html=1;whiteSpace=wrap;connectable=0;strokeColor=inherit;overflow=hidden;fillColor=none;top=0;left=0;bottom=0;right=0;pointerEvents=1;" vertex="1" parent="GbeJszpM7xZyYqwyyopm-80">
          <mxGeometry width="120" height="40" as="geometry">
            <mxRectangle width="120" height="40" as="alternateBounds" />
          </mxGeometry>
        </mxCell>
        <mxCell id="GbeJszpM7xZyYqwyyopm-82" value="String" style="shape=partialRectangle;html=1;whiteSpace=wrap;connectable=0;strokeColor=inherit;overflow=hidden;fillColor=none;top=0;left=0;bottom=0;right=0;pointerEvents=1;" vertex="1" parent="GbeJszpM7xZyYqwyyopm-80">
          <mxGeometry x="120" width="120" height="40" as="geometry">
            <mxRectangle width="120" height="40" as="alternateBounds" />
          </mxGeometry>
        </mxCell>
        <mxCell id="GbeJszpM7xZyYqwyyopm-83" value="" style="shape=tableRow;horizontal=0;startSize=0;swimlaneHead=0;swimlaneBody=0;strokeColor=inherit;top=0;left=0;bottom=0;right=0;collapsible=0;dropTarget=0;fillColor=none;points=[[0,0.5],[1,0.5]];portConstraint=eastwest;" vertex="1" parent="GbeJszpM7xZyYqwyyopm-64">
          <mxGeometry y="235" width="240" height="38" as="geometry" />
        </mxCell>
        <mxCell id="GbeJszpM7xZyYqwyyopm-84" value="description" style="shape=partialRectangle;html=1;whiteSpace=wrap;connectable=0;strokeColor=inherit;overflow=hidden;fillColor=none;top=0;left=0;bottom=0;right=0;pointerEvents=1;" vertex="1" parent="GbeJszpM7xZyYqwyyopm-83">
          <mxGeometry width="120" height="38" as="geometry">
            <mxRectangle width="120" height="38" as="alternateBounds" />
          </mxGeometry>
        </mxCell>
        <mxCell id="GbeJszpM7xZyYqwyyopm-85" value="String" style="shape=partialRectangle;html=1;whiteSpace=wrap;connectable=0;strokeColor=inherit;overflow=hidden;fillColor=none;top=0;left=0;bottom=0;right=0;pointerEvents=1;" vertex="1" parent="GbeJszpM7xZyYqwyyopm-83">
          <mxGeometry x="120" width="120" height="38" as="geometry">
            <mxRectangle width="120" height="38" as="alternateBounds" />
          </mxGeometry>
        </mxCell>
        <mxCell id="GbeJszpM7xZyYqwyyopm-86" value="" style="shape=tableRow;horizontal=0;startSize=0;swimlaneHead=0;swimlaneBody=0;strokeColor=inherit;top=0;left=0;bottom=0;right=0;collapsible=0;dropTarget=0;fillColor=none;points=[[0,0.5],[1,0.5]];portConstraint=eastwest;" vertex="1" parent="GbeJszpM7xZyYqwyyopm-64">
          <mxGeometry y="273" width="240" height="40" as="geometry" />
        </mxCell>
        <mxCell id="GbeJszpM7xZyYqwyyopm-87" value="userPicturePath" style="shape=partialRectangle;html=1;whiteSpace=wrap;connectable=0;strokeColor=inherit;overflow=hidden;fillColor=none;top=0;left=0;bottom=0;right=0;pointerEvents=1;" vertex="1" parent="GbeJszpM7xZyYqwyyopm-86">
          <mxGeometry width="120" height="40" as="geometry">
            <mxRectangle width="120" height="40" as="alternateBounds" />
          </mxGeometry>
        </mxCell>
        <mxCell id="GbeJszpM7xZyYqwyyopm-88" value="String Ref" style="shape=partialRectangle;html=1;whiteSpace=wrap;connectable=0;strokeColor=inherit;overflow=hidden;fillColor=none;top=0;left=0;bottom=0;right=0;pointerEvents=1;" vertex="1" parent="GbeJszpM7xZyYqwyyopm-86">
          <mxGeometry x="120" width="120" height="40" as="geometry">
            <mxRectangle width="120" height="40" as="alternateBounds" />
          </mxGeometry>
        </mxCell>
        <mxCell id="GbeJszpM7xZyYqwyyopm-89" value="" style="shape=tableRow;horizontal=0;startSize=0;swimlaneHead=0;swimlaneBody=0;strokeColor=inherit;top=0;left=0;bottom=0;right=0;collapsible=0;dropTarget=0;fillColor=none;points=[[0,0.5],[1,0.5]];portConstraint=eastwest;" vertex="1" parent="GbeJszpM7xZyYqwyyopm-64">
          <mxGeometry y="313" width="240" height="39" as="geometry" />
        </mxCell>
        <mxCell id="GbeJszpM7xZyYqwyyopm-90" value="picturePath" style="shape=partialRectangle;html=1;whiteSpace=wrap;connectable=0;strokeColor=inherit;overflow=hidden;fillColor=none;top=0;left=0;bottom=0;right=0;pointerEvents=1;" vertex="1" parent="GbeJszpM7xZyYqwyyopm-89">
          <mxGeometry width="120" height="39" as="geometry">
            <mxRectangle width="120" height="39" as="alternateBounds" />
          </mxGeometry>
        </mxCell>
        <mxCell id="GbeJszpM7xZyYqwyyopm-91" value="String Ref" style="shape=partialRectangle;html=1;whiteSpace=wrap;connectable=0;strokeColor=inherit;overflow=hidden;fillColor=none;top=0;left=0;bottom=0;right=0;pointerEvents=1;" vertex="1" parent="GbeJszpM7xZyYqwyyopm-89">
          <mxGeometry x="120" width="120" height="39" as="geometry">
            <mxRectangle width="120" height="39" as="alternateBounds" />
          </mxGeometry>
        </mxCell>
        <mxCell id="GbeJszpM7xZyYqwyyopm-92" value="" style="shape=tableRow;horizontal=0;startSize=0;swimlaneHead=0;swimlaneBody=0;strokeColor=inherit;top=0;left=0;bottom=0;right=0;collapsible=0;dropTarget=0;fillColor=none;points=[[0,0.5],[1,0.5]];portConstraint=eastwest;" vertex="1" parent="GbeJszpM7xZyYqwyyopm-64">
          <mxGeometry y="352" width="240" height="39" as="geometry" />
        </mxCell>
        <mxCell id="GbeJszpM7xZyYqwyyopm-93" value="likes" style="shape=partialRectangle;html=1;whiteSpace=wrap;connectable=0;strokeColor=inherit;overflow=hidden;fillColor=none;top=0;left=0;bottom=0;right=0;pointerEvents=1;" vertex="1" parent="GbeJszpM7xZyYqwyyopm-92">
          <mxGeometry width="120" height="39" as="geometry">
            <mxRectangle width="120" height="39" as="alternateBounds" />
          </mxGeometry>
        </mxCell>
        <mxCell id="GbeJszpM7xZyYqwyyopm-94" value="Object&amp;lt;String Ref&amp;gt;" style="shape=partialRectangle;html=1;whiteSpace=wrap;connectable=0;strokeColor=inherit;overflow=hidden;fillColor=none;top=0;left=0;bottom=0;right=0;pointerEvents=1;" vertex="1" parent="GbeJszpM7xZyYqwyyopm-92">
          <mxGeometry x="120" width="120" height="39" as="geometry">
            <mxRectangle width="120" height="39" as="alternateBounds" />
          </mxGeometry>
        </mxCell>
        <mxCell id="GbeJszpM7xZyYqwyyopm-95" value="" style="shape=tableRow;horizontal=0;startSize=0;swimlaneHead=0;swimlaneBody=0;strokeColor=inherit;top=0;left=0;bottom=0;right=0;collapsible=0;dropTarget=0;fillColor=none;points=[[0,0.5],[1,0.5]];portConstraint=eastwest;" vertex="1" parent="GbeJszpM7xZyYqwyyopm-64">
          <mxGeometry y="391" width="240" height="39" as="geometry" />
        </mxCell>
        <mxCell id="GbeJszpM7xZyYqwyyopm-96" value="comments" style="shape=partialRectangle;html=1;whiteSpace=wrap;connectable=0;strokeColor=inherit;overflow=hidden;fillColor=none;top=0;left=0;bottom=0;right=0;pointerEvents=1;" vertex="1" parent="GbeJszpM7xZyYqwyyopm-95">
          <mxGeometry width="120" height="39" as="geometry">
            <mxRectangle width="120" height="39" as="alternateBounds" />
          </mxGeometry>
        </mxCell>
        <mxCell id="GbeJszpM7xZyYqwyyopm-97" value="Array&amp;lt;String&amp;gt;" style="shape=partialRectangle;html=1;whiteSpace=wrap;connectable=0;strokeColor=inherit;overflow=hidden;fillColor=none;top=0;left=0;bottom=0;right=0;pointerEvents=1;" vertex="1" parent="GbeJszpM7xZyYqwyyopm-95">
          <mxGeometry x="120" width="120" height="39" as="geometry">
            <mxRectangle width="120" height="39" as="alternateBounds" />
          </mxGeometry>
        </mxCell>
        <mxCell id="GbeJszpM7xZyYqwyyopm-101" value="Post" style="whiteSpace=wrap;html=1;startSize=0;fillColor=#e1d5e7;strokeColor=#9673a6;" vertex="1" parent="WIyWlLk6GJQsqaUBKTNV-1">
          <mxGeometry x="390" y="30" width="240" height="40" as="geometry" />
        </mxCell>
        <mxCell id="GbeJszpM7xZyYqwyyopm-102" value="" style="shape=table;startSize=0;container=1;collapsible=0;childLayout=tableLayout;" vertex="1" parent="WIyWlLk6GJQsqaUBKTNV-1">
          <mxGeometry x="30" y="650" width="240" height="274" as="geometry" />
        </mxCell>
        <mxCell id="GbeJszpM7xZyYqwyyopm-103" style="shape=tableRow;horizontal=0;startSize=0;swimlaneHead=0;swimlaneBody=0;strokeColor=inherit;top=0;left=0;bottom=0;right=0;collapsible=0;dropTarget=0;fillColor=none;points=[[0,0.5],[1,0.5]];portConstraint=eastwest;" vertex="1" parent="GbeJszpM7xZyYqwyyopm-102">
          <mxGeometry width="240" height="39" as="geometry" />
        </mxCell>
        <mxCell id="GbeJszpM7xZyYqwyyopm-104" value="Field" style="shape=partialRectangle;html=1;whiteSpace=wrap;connectable=0;strokeColor=#82b366;overflow=hidden;fillColor=#d5e8d4;top=0;left=0;bottom=0;right=0;pointerEvents=1;" vertex="1" parent="GbeJszpM7xZyYqwyyopm-103">
          <mxGeometry width="120" height="39" as="geometry">
            <mxRectangle width="120" height="39" as="alternateBounds" />
          </mxGeometry>
        </mxCell>
        <mxCell id="GbeJszpM7xZyYqwyyopm-105" value="Type" style="shape=partialRectangle;html=1;whiteSpace=wrap;connectable=0;strokeColor=#82b366;overflow=hidden;fillColor=#d5e8d4;top=0;left=0;bottom=0;right=0;pointerEvents=1;dashed=1;" vertex="1" parent="GbeJszpM7xZyYqwyyopm-103">
          <mxGeometry x="120" width="120" height="39" as="geometry">
            <mxRectangle width="120" height="39" as="alternateBounds" />
          </mxGeometry>
        </mxCell>
        <mxCell id="GbeJszpM7xZyYqwyyopm-106" value="" style="shape=tableRow;horizontal=0;startSize=0;swimlaneHead=0;swimlaneBody=0;strokeColor=inherit;top=0;left=0;bottom=0;right=0;collapsible=0;dropTarget=0;fillColor=none;points=[[0,0.5],[1,0.5]];portConstraint=eastwest;" vertex="1" parent="GbeJszpM7xZyYqwyyopm-102">
          <mxGeometry y="39" width="240" height="39" as="geometry" />
        </mxCell>
        <mxCell id="GbeJszpM7xZyYqwyyopm-107" value="_id" style="shape=partialRectangle;html=1;whiteSpace=wrap;connectable=0;strokeColor=inherit;overflow=hidden;fillColor=none;top=0;left=0;bottom=0;right=0;pointerEvents=1;" vertex="1" parent="GbeJszpM7xZyYqwyyopm-106">
          <mxGeometry width="120" height="39" as="geometry">
            <mxRectangle width="120" height="39" as="alternateBounds" />
          </mxGeometry>
        </mxCell>
        <mxCell id="GbeJszpM7xZyYqwyyopm-108" value="String" style="shape=partialRectangle;html=1;whiteSpace=wrap;connectable=0;strokeColor=inherit;overflow=hidden;fillColor=none;top=0;left=0;bottom=0;right=0;pointerEvents=1;dashed=1;" vertex="1" parent="GbeJszpM7xZyYqwyyopm-106">
          <mxGeometry x="120" width="120" height="39" as="geometry">
            <mxRectangle width="120" height="39" as="alternateBounds" />
          </mxGeometry>
        </mxCell>
        <mxCell id="GbeJszpM7xZyYqwyyopm-109" value="" style="shape=tableRow;horizontal=0;startSize=0;swimlaneHead=0;swimlaneBody=0;strokeColor=inherit;top=0;left=0;bottom=0;right=0;collapsible=0;dropTarget=0;fillColor=none;points=[[0,0.5],[1,0.5]];portConstraint=eastwest;" vertex="1" parent="GbeJszpM7xZyYqwyyopm-102">
          <mxGeometry y="78" width="240" height="39" as="geometry" />
        </mxCell>
        <mxCell id="GbeJszpM7xZyYqwyyopm-110" value="firstName" style="shape=partialRectangle;html=1;whiteSpace=wrap;connectable=0;strokeColor=inherit;overflow=hidden;fillColor=none;top=0;left=0;bottom=0;right=0;pointerEvents=1;" vertex="1" parent="GbeJszpM7xZyYqwyyopm-109">
          <mxGeometry width="120" height="39" as="geometry">
            <mxRectangle width="120" height="39" as="alternateBounds" />
          </mxGeometry>
        </mxCell>
        <mxCell id="GbeJszpM7xZyYqwyyopm-111" value="String Ref" style="shape=partialRectangle;html=1;whiteSpace=wrap;connectable=0;strokeColor=inherit;overflow=hidden;fillColor=none;top=0;left=0;bottom=0;right=0;pointerEvents=1;" vertex="1" parent="GbeJszpM7xZyYqwyyopm-109">
          <mxGeometry x="120" width="120" height="39" as="geometry">
            <mxRectangle width="120" height="39" as="alternateBounds" />
          </mxGeometry>
        </mxCell>
        <mxCell id="GbeJszpM7xZyYqwyyopm-112" value="" style="shape=tableRow;horizontal=0;startSize=0;swimlaneHead=0;swimlaneBody=0;strokeColor=inherit;top=0;left=0;bottom=0;right=0;collapsible=0;dropTarget=0;fillColor=none;points=[[0,0.5],[1,0.5]];portConstraint=eastwest;" vertex="1" parent="GbeJszpM7xZyYqwyyopm-102">
          <mxGeometry y="117" width="240" height="39" as="geometry" />
        </mxCell>
        <mxCell id="GbeJszpM7xZyYqwyyopm-113" value="lastName" style="shape=partialRectangle;html=1;whiteSpace=wrap;connectable=0;strokeColor=inherit;overflow=hidden;fillColor=none;top=0;left=0;bottom=0;right=0;pointerEvents=1;" vertex="1" parent="GbeJszpM7xZyYqwyyopm-112">
          <mxGeometry width="120" height="39" as="geometry">
            <mxRectangle width="120" height="39" as="alternateBounds" />
          </mxGeometry>
        </mxCell>
        <mxCell id="GbeJszpM7xZyYqwyyopm-114" value="String" style="shape=partialRectangle;html=1;whiteSpace=wrap;connectable=0;strokeColor=inherit;overflow=hidden;fillColor=none;top=0;left=0;bottom=0;right=0;pointerEvents=1;" vertex="1" parent="GbeJszpM7xZyYqwyyopm-112">
          <mxGeometry x="120" width="120" height="39" as="geometry">
            <mxRectangle width="120" height="39" as="alternateBounds" />
          </mxGeometry>
        </mxCell>
        <mxCell id="GbeJszpM7xZyYqwyyopm-115" value="" style="shape=tableRow;horizontal=0;startSize=0;swimlaneHead=0;swimlaneBody=0;strokeColor=inherit;top=0;left=0;bottom=0;right=0;collapsible=0;dropTarget=0;fillColor=none;points=[[0,0.5],[1,0.5]];portConstraint=eastwest;" vertex="1" parent="GbeJszpM7xZyYqwyyopm-102">
          <mxGeometry y="156" width="240" height="39" as="geometry" />
        </mxCell>
        <mxCell id="GbeJszpM7xZyYqwyyopm-116" value="picturePath" style="shape=partialRectangle;html=1;whiteSpace=wrap;connectable=0;strokeColor=inherit;overflow=hidden;fillColor=none;top=0;left=0;bottom=0;right=0;pointerEvents=1;" vertex="1" parent="GbeJszpM7xZyYqwyyopm-115">
          <mxGeometry width="120" height="39" as="geometry">
            <mxRectangle width="120" height="39" as="alternateBounds" />
          </mxGeometry>
        </mxCell>
        <mxCell id="GbeJszpM7xZyYqwyyopm-117" value="String Ref" style="shape=partialRectangle;html=1;whiteSpace=wrap;connectable=0;strokeColor=inherit;overflow=hidden;fillColor=none;top=0;left=0;bottom=0;right=0;pointerEvents=1;" vertex="1" parent="GbeJszpM7xZyYqwyyopm-115">
          <mxGeometry x="120" width="120" height="39" as="geometry">
            <mxRectangle width="120" height="39" as="alternateBounds" />
          </mxGeometry>
        </mxCell>
        <mxCell id="GbeJszpM7xZyYqwyyopm-137" style="shape=tableRow;horizontal=0;startSize=0;swimlaneHead=0;swimlaneBody=0;strokeColor=inherit;top=0;left=0;bottom=0;right=0;collapsible=0;dropTarget=0;fillColor=none;points=[[0,0.5],[1,0.5]];portConstraint=eastwest;" vertex="1" parent="GbeJszpM7xZyYqwyyopm-102">
          <mxGeometry y="195" width="240" height="39" as="geometry" />
        </mxCell>
        <mxCell id="GbeJszpM7xZyYqwyyopm-138" value="occupation" style="shape=partialRectangle;html=1;whiteSpace=wrap;connectable=0;strokeColor=inherit;overflow=hidden;fillColor=none;top=0;left=0;bottom=0;right=0;pointerEvents=1;" vertex="1" parent="GbeJszpM7xZyYqwyyopm-137">
          <mxGeometry width="120" height="39" as="geometry">
            <mxRectangle width="120" height="39" as="alternateBounds" />
          </mxGeometry>
        </mxCell>
        <mxCell id="GbeJszpM7xZyYqwyyopm-139" value="String" style="shape=partialRectangle;html=1;whiteSpace=wrap;connectable=0;strokeColor=inherit;overflow=hidden;fillColor=none;top=0;left=0;bottom=0;right=0;pointerEvents=1;" vertex="1" parent="GbeJszpM7xZyYqwyyopm-137">
          <mxGeometry x="120" width="120" height="39" as="geometry">
            <mxRectangle width="120" height="39" as="alternateBounds" />
          </mxGeometry>
        </mxCell>
        <mxCell id="GbeJszpM7xZyYqwyyopm-118" value="" style="shape=tableRow;horizontal=0;startSize=0;swimlaneHead=0;swimlaneBody=0;strokeColor=inherit;top=0;left=0;bottom=0;right=0;collapsible=0;dropTarget=0;fillColor=none;points=[[0,0.5],[1,0.5]];portConstraint=eastwest;" vertex="1" parent="GbeJszpM7xZyYqwyyopm-102">
          <mxGeometry y="234" width="240" height="40" as="geometry" />
        </mxCell>
        <mxCell id="GbeJszpM7xZyYqwyyopm-119" value="location" style="shape=partialRectangle;html=1;whiteSpace=wrap;connectable=0;strokeColor=inherit;overflow=hidden;fillColor=none;top=0;left=0;bottom=0;right=0;pointerEvents=1;" vertex="1" parent="GbeJszpM7xZyYqwyyopm-118">
          <mxGeometry width="120" height="40" as="geometry">
            <mxRectangle width="120" height="40" as="alternateBounds" />
          </mxGeometry>
        </mxCell>
        <mxCell id="GbeJszpM7xZyYqwyyopm-120" value="String" style="shape=partialRectangle;html=1;whiteSpace=wrap;connectable=0;strokeColor=inherit;overflow=hidden;fillColor=none;top=0;left=0;bottom=0;right=0;pointerEvents=1;" vertex="1" parent="GbeJszpM7xZyYqwyyopm-118">
          <mxGeometry x="120" width="120" height="40" as="geometry">
            <mxRectangle width="120" height="40" as="alternateBounds" />
          </mxGeometry>
        </mxCell>
        <mxCell id="GbeJszpM7xZyYqwyyopm-136" value="Friend (Sub Doc)" style="whiteSpace=wrap;html=1;startSize=0;fillColor=#e1d5e7;strokeColor=#9673a6;" vertex="1" parent="WIyWlLk6GJQsqaUBKTNV-1">
          <mxGeometry x="30" y="610" width="240" height="40" as="geometry" />
        </mxCell>
        <mxCell id="GbeJszpM7xZyYqwyyopm-140" value="images" style="rounded=0;whiteSpace=wrap;html=1;" vertex="1" parent="WIyWlLk6GJQsqaUBKTNV-1">
          <mxGeometry x="530" y="640" width="120" height="60" as="geometry" />
        </mxCell>
        <mxCell id="GbeJszpM7xZyYqwyyopm-141" value="path" style="rounded=0;whiteSpace=wrap;html=1;" vertex="1" parent="WIyWlLk6GJQsqaUBKTNV-1">
          <mxGeometry x="530" y="700" width="120" height="60" as="geometry" />
        </mxCell>
      </root>
    </mxGraphModel>
  </diagram>
</mxfile>
